/* XPM */
static char *_358fe4c069f4da79bc657ee4d42ae57[] = {
/* columns rows colors chars-per-pixel */
"16 16 115 2 ",
"   c None",
".  c black",
"X  c #020100",
"o  c #020200",
"O  c #040301",
"+  c #060501",
"@  c #070501",
"#  c #060502",
"$  c #090702",
"%  c #090802",
"&  c #0F0C03",
"*  c #110E03",
"=  c #120F03",
"-  c #191404",
";  c #1A1505",
":  c #191406",
">  c #1D1805",
",  c #221B05",
"<  c #221C05",
"1  c #231C06",
"2  c #241D06",
"3  c #271F07",
"4  c #2A2107",
"5  c #302608",
"6  c #302709",
"7  c #31270A",
"8  c #312808",
"9  c #332909",
"0  c #33290A",
"q  c #362B08",
"w  c #372C09",
"e  c #382D0A",
"r  c #382D0B",
"t  c #3B2F0A",
"y  c #3C3009",
"u  c #3C300A",
"i  c #3D300A",
"p  c #3F330B",
"a  c #40340B",
"s  c #44370B",
"d  c #41340C",
"f  c #47380B",
"g  c #4B3C0C",
"h  c #4F3F0D",
"j  c #52420E",
"k  c #53430E",
"l  c #5A480F",
"z  c #5F4C0F",
"x  c #624E10",
"c  c #6A5412",
"v  c #6F5912",
"b  c #725B12",
"n  c #745D13",
"m  c #765E13",
"M  c #715A14",
"N  c #7C6414",
"B  c #816716",
"V  c #816815",
"C  c #826815",
"Z  c #816816",
"A  c #846A15",
"S  c #856B17",
"D  c #866B16",
"F  c #876C16",
"G  c #886D17",
"H  c #896E17",
"J  c #8B6F16",
"K  c #8B6F18",
"L  c #927517",
"P  c #907318",
"I  c #937518",
"U  c #967818",
"Y  c #987918",
"T  c #9A7B19",
"R  c #9C7D1A",
"E  c #A3831B",
"W  c #A4831B",
"Q  c #AA891D",
"!  c #AC8A1C",
"~  c #AD8A1C",
"^  c #B08D1C",
"/  c #B28E1D",
"(  c #B18E1E",
")  c #B5901D",
"_  c #B6921E",
"`  c #BE981E",
"'  c #BC9720",
"]  c #C29B1F",
"[  c #C49D1F",
"{  c #C79F20",
"}  c #C69F22",
"|  c #CAA221",
" . c #C9A122",
".. c #CEA521",
"X. c #CFA623",
"o. c #D0A622",
"O. c #D2A822",
"+. c #D5AB22",
"@. c #D4AA23",
"#. c #D6AC24",
"$. c #D8AD23",
"%. c #DDB125",
"&. c #E2B524",
"*. c #E4B725",
"=. c #EBBD27",
"-. c #EDBD26",
";. c #EFBF27",
":. c #EFBF28",
">. c #F4C328",
",. c #F5C428",
"<. c #F9C82A",
"1. c #FFCC2A",
"2. c #FFCD2A",
"3. c #FFCE2A",
"4. c #FFCF2B",
/* pixels */
"          + * > y 5             ",
"      . O = , 8 g j             ",
"      o & < q f l v V           ",
"      % - 4 t u 9 n L W         ",
"      X O @ $ %   i T ) R       ",
"                  D ~ [ G       ",
"      w h x m N I ^ ] ] k       ",
"      s z b A Y ! ` O.o.        ",
"      j v C U P H ..&.,.<.      ",
"      1 6 e d r ; F -.1.=.      ",
"                  Z ;.3.%.      ",
"      C E _ | } #.1.1.4.Q       ",
"      J / ] +.*.>.3.4. .a       ",
"      c K { $.@.2.X.S 6         ",
"      # : ( ' B :.M             ",
"          7 0 2 p 3             "
};
