/* XPM */
static char *_d7593c967af4aded38188c7935e8819[] = {
/* columns rows colors chars-per-pixel */
"32 32 65 1 ",
"  c None",
". c #010100",
"X c #080602",
"o c #0C0A02",
"O c #120E03",
"+ c #161104",
"@ c #1A1505",
"# c #1F1906",
"$ c #231C06",
"% c #2A2207",
"& c #312709",
"* c #342A09",
"= c #3A2E0A",
"- c #3E310A",
"; c #43350B",
": c #46380C",
"> c #4C3D0C",
", c #4D3D10",
"< c #54430E",
"1 c #59470E",
"2 c #5D4A0F",
"3 c #544310",
"4 c #5C4A11",
"5 c #624E11",
"6 c #665211",
"7 c #6A5512",
"8 c #6E5912",
"9 c #735C13",
"0 c #776013",
"q c #7B6214",
"w c #7D6418",
"e c #806715",
"r c #846915",
"t c #896D16",
"y c #8A6E19",
"u c #8D7116",
"i c #8D7218",
"p c #917417",
"a c #937618",
"s c #977919",
"d c #9C7D1A",
"f c #A3831B",
"g c #A9871C",
"h c #AD8A1D",
"j c #B18E1D",
"k c #B5911E",
"l c #BA951E",
"z c #BF981F",
"x c #BC9721",
"c c #C29C1F",
"v c #C59E21",
"b c #CBA321",
"n c #D0A722",
"m c #D4AA23",
"M c #D9AD23",
"N c #DDB124",
"B c #E2B525",
"V c #E7B925",
"C c #EABB26",
"Z c #EFC027",
"A c #F2C227",
"S c #F6C528",
"D c #F9C728",
"F c #FECC2A",
"G c #FFD02B",
/* pixels */
"          ..o+ $*-=             ",
"          .o++.%-;*             ",
"          XO#$+&;>;             ",
"      ...XO@$%*;><269           ",
"      ..XO@$%*-><2690e          ",
"      ..o+#%*-;><680eta         ",
"      .o+$%*-:<-%59etpdf        ",
"      XO@$%*=;>=.$8tpdfhg       ",
"      ...XX.XXXX..#9sfhkg       ",
"      ..........  .$phjch       ",
"                   9gjlvk       ",
"      %*;:<269q0  fhjkcng@      ",
"      %-;>1570e2 ffhkvbMq       ",
"      &:>1570qtepfhkvbnv&       ",
"      =>1579qrpsfhkcbnNj@       ",
"      -<2790rusfgkzcnMBVm       ",
"      :469qrysdsflcnmBCAF       ",
"      >689rysfh9&fnMBCAFFB      ",
"      *>344799w3.$dBCAFFFN      ",
"      ....X.X.XX .@aCDFFFN      ",
"                  .=NFFFFM      ",
"                   mFFFFGv      ",
"      qisdgxxvnx  DFFFFFFy      ",
"      8sdfhxvbMfdDFFFFFFV*      ",
"      9dfhxvbnBNCDFFFFFF9.      ",
"      0ghxvvmNBADFFFFGSeX       ",
"      rjxxbnMCADFFGGDb4X        ",
"      :557jNBmyBFGNw,+.         ",
"      ....sVCxOvGGh...          ",
"          dCAx@vGFh             ",
"          &,3=X:44-             ",
"          .........             "
};
