/* XPM */
static char *f5cbb7a2e2354f26edb8546fa5a773f7[] = {
/* columns rows colors chars-per-pixel */
"64 64 85 1 ",
"  c None",
". c #010100",
"X c #080702",
"o c #0C0A02",
"O c #120E03",
"+ c #151104",
"@ c #1A1505",
"# c #1F1905",
"$ c #1E170A",
"% c #1F180A",
"& c #231C06",
"* c #241D0A",
"= c #281F09",
"- c #272006",
"; c #2B2307",
": c #2B2309",
"> c #302607",
", c #312708",
"< c #342A08",
"1 c #3A2E0A",
"2 c #3E310A",
"3 c #42350B",
"4 c #46380B",
"5 c #4B3C0C",
"6 c #463810",
"7 c #4C3C11",
"8 c #53430E",
"9 c #59470E",
"0 c #5D4A0F",
"q c #534212",
"w c #594712",
"e c #5D4B13",
"r c #624E11",
"t c #655111",
"y c #6A5511",
"u c #6E5913",
"i c #735D13",
"p c #745E19",
"a c #776013",
"s c #7B6314",
"d c #776018",
"f c #7D661A",
"g c #816714",
"h c #846A15",
"j c #896E16",
"k c #856B1A",
"l c #896E1B",
"z c #8D7116",
"x c #8E721B",
"c c #927417",
"v c #94761A",
"b c #96791A",
"n c #9C7D19",
"m c #A07F1A",
"M c #9F801C",
"N c #A4831B",
"B c #A8871C",
"V c #AD8A1C",
"C c #B18E1C",
"Z c #B6911D",
"A c #BB951E",
"S c #BF981F",
"D c #AD8B21",
"F c #B39120",
"G c #BB9521",
"H c #BE9923",
"J c #C39C1F",
"K c #C7A01F",
"L c #C39C21",
"P c #C7A021",
"I c #CBA321",
"U c #D0A722",
"Y c #D4AA22",
"T c #D9AE23",
"R c #DEB224",
"E c #E2B524",
"W c #E6B825",
"Q c #EBBC26",
"! c #E3B628",
"~ c #EFC027",
"^ c #F2C227",
"/ c #F5C429",
"( c #F9C728",
") c #FFCC2A",
"_ c #FFD02B",
/* pixels */
"                     ..XXo++  &;;<<23                           ",
"                    ...XXO+O  #;<1134&                          ",
"                    ..XXo+@O..@<<1345#                          ",
"                    .XXo+@@+..&<12445#                          ",
"                    .Xo+@@&+..&223458#                          ",
"                   XXo+@@&&&@#;234588<&                         ",
"            .......Xo+@@&&;;<113458800ryu                       ",
"           .......XoO+@@&-;<113455890rtyips                     ",
"           ......XXO+@@&;;><13445890rtyiiash                    ",
"           .....Xoo+@@&;;><12445890rtyuiasgjz                   ",
"           ....XXo+@@&&;><124458800tyuissghzzv                  ",
"           ....Xo+@@&-;;<12444838rttyiisghjzcnn                 ",
"           ...XoO+@@&;;>1234558=&8tuiisghjzcbnmB                ",
"           ..XoO@@&&;;<11244880;.@0iisshjzcbnNNV                ",
"           .XoO+@@&-;><1344889r:..+wsshhzccnnNBVV               ",
"           .XoO+@@&-;;<<1234558*...o8gjzccnmNBVCZ               ",
"           .....X..X.XXXXXXXXXXX....X8jccnnNBVCZAk              ",
"           .....................  ....6znnNNVVZAJb              ",
"           .....................   ....2cmNVVZASLB*             ",
"                                     ..OsNVVZZSJKC:             ",
"                                      &pNBCCZAJJKA*             ",
"                                      vNBVCZAJJKUA@             ",
"                            ffk      mNBVCZAJJKKYNo             ",
"            ;;<12345880ettuipsg     nNNBCZZJJKUYTk.             ",
"           .&<11345889rryyiaagh<  nnNNVCCAAJJIUYT7.             ",
"           .&113445890rtyiaaggj> nbNNBCCAJJJIUYTG@.             ",
"           X&23455890rtyuiaggjj8snNNBVCAAJKKUYTEi.              ",
"           .;3345880rtyiiaggjjccbmNNVCZAJJIKYTRA$.              ",
"           .:445890rtyyiaggjzzcnnNNVCCAJJIIYYR!y..              ",
"           X,558800tyyiaaggjccnnmBVCZAJJKKYYRRWB+               ",
"           .<55890tyyiiaghjzcbnNBVCCAJJJKYYTREQQF               ",
"           .<8q00ttyiisghjzccnmNBVCAAJJKUYTREQQ/(               ",
"           .1880rtyuissfjzvbnmmDCCAAJJIUYTREWQ^/()              ",
"           X290rtyuissgjjcvbnNNthAAJJJUYYREWQ^^()))             ",
"           .30rtyuissgjjcvbmNNV3OsHJKUUTTEWQ~/()))/             ",
"           .3rryyiasghjccnnNBVC3.ouJKUYTE!Q~^/)))))M            ",
"           X4tyuiisgjjcbnnNBDCG3...eKTTE!QQ//)))))_D            ",
"           .#;:<123466675qqwwee*....5LE!WQ^/))))))_H            ",
"           .....................  ...1AQQ^/()))))))U*           ",
"           .....................   ...=V^/())))))))T*           ",
"            ....................    ...$G())))))))_T*           ",
"                                     ..t!)))))))))_U+           ",
"                                      vQ))))))))))_DX           ",
"                                     /(())))))))))_l.           ",
"            fgjxvbnNNDDFGHHPIUY     //()))))))))))/7.           ",
"            rjzcvnnNBVCFALLIUUTk   ^/()))))))))))_I$.           ",
"           .9zcvbnNBVCAAHLPIUTTr  ^/())))))))))))_p.            ",
"           .0vvbnNNVCZAALPIUTTEyi^^/))))))))))))_I$.            ",
"           .rbnnmBVCCAJJJIUYTEEL!Q/)))))))))))))/q..            ",
"           .rbnmmVCCAAJKIYYTR!QQ//))))))))))))))f..             ",
"           .tnmNVVCZAJJJUYTR!QQQ/()))))))))))))xX..             ",
"           .tNNBVCZAJJJYYTTEWQ^/()))))))))))_/lX..              ",
"           XyNBVCZAJLIIYTTEWQQ/())))))))))_)Te...               ",
"           .yBVCCGLJLIUYTRWQQ(())))))))__)Rx&...                ",
"           .rnNNDBCCLYTTEEQWE!/)))))_/!UDt*....                 ",
"           .O$$#$$*&pTTTEWQm==D)))))_x%+......                  ",
"           .........eT!!W~/x..M_))))_p......                    ",
"           .........rR!!Q~(v..M_)))))p....                      ",
"                   .r!QQ~^)x..M_))))_r.                         ",
"                    eQQ//)_v..N______r                          ",
"                    1lllxxbq..tNnDnDD2                          ",
"                    ..................                          ",
"                   ...................                          ",
"                    ..................                          "
};
